<?xml version="1.0" encoding="UTF-8" standalone="no"?>
<!DOCTYPE svg PUBLIC "-//W3C//DTD SVG 1.1//EN" "http://www.w3.org/Graphics/SVG/1.1/DTD/svg11.dtd">
<svg width="53.87" height="43.61" viewBox="0 0 464 454" version="1.1" xmlns="http://www.w3.org/2000/svg" xmlns:xlink="http://www.w3.org/1999/xlink" xml:space="preserve" xmlns:serif="http://www.serif.com/" style="fill-rule:evenodd;clip-rule:evenodd;stroke-linecap:round;stroke-miterlimit:1.5;">
    <g transform="matrix(0.440991,0,0,0.440991,-340.886,385.196)">
        <g transform="matrix(1,0,0,1,-1555,394.566)">
            <path d="M2328,-766.566L2328,-1005L2591.04,-1268.04L2854.09,-1005L3117.13,-1268.04L3380.18,-1005L3380.18,-766.566L2854.09,-240.478L2328,-766.566Z" style="fill:none;"/>
            <clipPath id="_clip1">
                <path d="M2328,-766.566L2328,-1005L2591.04,-1268.04L2854.09,-1005L3117.13,-1268.04L3380.18,-1005L3380.18,-766.566L2854.09,-240.478L2328,-766.566Z"/>
            </clipPath>
            <g clip-path="url(#_clip1)">
                <g transform="matrix(0.722145,0.722145,-2.29447e-16,1.16909,2076.34,-1922.43)">
                    <rect x="712" y="130" width="365" height="210" style="fill:rgb(64,64,64);"/>
                </g>
                <g transform="matrix(0.692008,0.692008,-2.29447e-16,1.16909,2625.88,-1904.51)">
                    <rect x="712" y="130" width="365" height="210" style="fill:rgb(64,64,64);"/>
                </g>
                <g transform="matrix(0.692008,-0.692008,8.83516e-17,1.16909,2367.34,-659.041)">
                    <rect x="712" y="130" width="365" height="210" style="fill:rgb(89,89,89);"/>
                </g>
                <g transform="matrix(0.692008,-0.692008,8.83516e-17,1.16909,1845.21,-662.967)">
                    <rect x="712" y="130" width="365" height="210" style="fill:rgb(89,89,89);"/>
                </g>
            </g>
            <path d="M2328,-766.566L2328,-1005L2591.04,-1268.04L2854.09,-1005L3117.13,-1268.04L3380.18,-1005L3380.18,-766.566L2854.09,-240.478L2328,-766.566ZM2368.82,-783.473L2368.82,-988.093C2368.82,-988.093 2591.04,-1210.32 2591.04,-1210.32C2591.04,-1210.32 2854.09,-947.276 2854.09,-947.276L3117.13,-1210.32C3117.13,-1210.32 3339.36,-988.093 3339.36,-988.093C3339.36,-988.093 3339.36,-783.473 3339.36,-783.473C3339.36,-783.473 2854.09,-298.202 2854.09,-298.202C2755.55,-396.744 2434.85,-717.441 2368.82,-783.473L2368.82,-783.473Z"/>
        </g>
        <g transform="matrix(0.707107,-0.707107,0.707107,0.707107,15.6886,601.686)">
            <path d="M1224,-153L1596,-153L1596,219L1968,219L1968,591L1224,591L1224,-153Z" style="fill:rgb(204,40,76);"/>
            <path d="M1224,-153L1596,-153L1596,219L1968,219L1968,591L1224,591L1224,-153ZM1264.82,-112.183L1555.18,-112.183C1555.18,-112.183 1555.18,259.817 1555.18,259.817L1927.18,259.817C1927.18,259.817 1927.18,550.183 1927.18,550.183C1927.18,550.183 1264.82,550.183 1264.82,550.183C1264.82,550.183 1264.82,-112.183 1264.82,-112.183L1264.82,-112.183Z"/>
        </g>
        <g transform="matrix(1,0,0,0.953866,-4.5,-2.99472)">
            <path d="M1562.13,-873.478L1562.13,-635.044" style="fill:none;stroke:black;stroke-width:41.77px;"/>
        </g>
        <g transform="matrix(1,0,0,0.953866,-526.627,-2.99472)">
            <path d="M1562.13,-873.478L1562.13,-635.044" style="fill:none;stroke:black;stroke-width:41.77px;"/>
        </g>
        <g transform="matrix(1,0,0,0.953866,-263.044,246.051)">
            <path d="M1562.13,-873.478L1562.13,-635.044" style="fill:none;stroke:black;stroke-width:41.77px;"/>
        </g>
    </g>
</svg>
